HIERARCHY
ROOT Hips
{
	OFFSET 0.000000 0.000000 0.000000
	CHANNELS 6 Xposition Yposition Zposition Zrotation Yrotation Xrotation 
	JOINT LHipJoint
	{
		OFFSET 0.000000 0.000000 0.000000
		CHANNELS 3 Zrotation Yrotation Xrotation
		JOINT LeftUpLeg
		{
			OFFSET 1.363060 -1.794630 0.839290
			CHANNELS 3 Zrotation Yrotation Xrotation
			JOINT LeftLeg
			{
				OFFSET 2.448110 -6.726130 0.000000
				CHANNELS 3 Zrotation Yrotation Xrotation
				JOINT LeftFoot
				{
					OFFSET 2.562200 -7.039590 0.000000
					CHANNELS 3 Zrotation Yrotation Xrotation
					JOINT LeftToeBase
					{
						OFFSET 0.157640 -0.433110 2.322550
						CHANNELS 3 Zrotation Yrotation Xrotation
						End Site
						{
							OFFSET 0.000000 0.000000 0.000000
						}
					}
				}
			}
		}
	}
	JOINT RHipJoint
	{
		OFFSET 0.000000 0.000000 0.000000
		CHANNELS 3 Zrotation Yrotation Xrotation
		JOINT RightUpLeg
		{
			OFFSET -1.305520 -1.794630 0.839290
			CHANNELS 3 Zrotation Yrotation Xrotation
			JOINT RightLeg
			{
				OFFSET -2.542530 -6.985550 0.000000
				CHANNELS 3 Zrotation Yrotation Xrotation
				JOINT RightFoot
				{
					OFFSET -2.568260 -7.056230 0.000000
					CHANNELS 3 Zrotation Yrotation Xrotation
					JOINT RightToeBase
					{
						OFFSET -0.164730 -0.452590 2.363150
						CHANNELS 3 Zrotation Yrotation Xrotation
						End Site
						{
							OFFSET 0.000000 0.000000 0.000000
						}
					}
				}
			}
		}
	}
	JOINT LowerBack
	{
		OFFSET 0.000000 0.000000 0.000000
		CHANNELS 3 Zrotation Yrotation Xrotation
		JOINT Spine
		{
			OFFSET 0.028270 2.035590 -0.193380
			CHANNELS 3 Zrotation Yrotation Xrotation
			JOINT Spine1
			{
				OFFSET 0.056720 2.048850 -0.042750
				CHANNELS 3 Zrotation Yrotation Xrotation
				JOINT Neck
				{
					OFFSET 0.000000 0.000000 0.000000
					CHANNELS 3 Zrotation Yrotation Xrotation
					JOINT Neck1
					{
						OFFSET -0.054170 1.746240 0.172020
						CHANNELS 3 Zrotation Yrotation Xrotation
						JOINT Head
						{
							OFFSET 0.104070 1.761360 -0.123970
							CHANNELS 3 Zrotation Yrotation Xrotation
							End Site
							{
								OFFSET 0.000000 0.000000 0.000000
							}
						}
					}
				}
				JOINT LeftShoulder
				{
					OFFSET 0.000000 0.000000 0.000000
					CHANNELS 3 Zrotation Yrotation Xrotation
					JOINT LeftArm
					{
						OFFSET 3.362410 1.200890 -0.311210
						CHANNELS 3 Zrotation Yrotation Xrotation
						JOINT LeftForeArm
						{
							OFFSET 4.983000 -0.000000 -0.000000
							CHANNELS 3 Zrotation Yrotation Xrotation
							JOINT LeftHand
							{
								OFFSET 3.483560 -0.000000 -0.000000
								CHANNELS 3 Zrotation Yrotation Xrotation
								JOINT LeftFingerBase
								{
									OFFSET 0.000000 0.000000 0.000000
									CHANNELS 3 Zrotation Yrotation Xrotation
									JOINT LeftHandIndex1
									{
										OFFSET 0.715260 -0.000000 -0.000000
										CHANNELS 3 Zrotation Yrotation Xrotation
										End Site
										{
											OFFSET 0.000000 0.000000 0.000000
										}
									}
								}
								JOINT LThumb
								{
									OFFSET 0.000000 0.000000 0.000000
									CHANNELS 3 Zrotation Yrotation Xrotation
									End Site
									{
										OFFSET 0.000000 0.000000 0.000000
									}
								}
							}
						}
					}
				}
				JOINT RightShoulder
				{
					OFFSET 0.000000 0.000000 0.000000
					CHANNELS 3 Zrotation Yrotation Xrotation
					JOINT RightArm
					{
						OFFSET -3.136600 1.374050 -0.404650
						CHANNELS 3 Zrotation Yrotation Xrotation
						JOINT RightForeArm
						{
							OFFSET -5.241900 -0.000000 -0.000000
							CHANNELS 3 Zrotation Yrotation Xrotation
							JOINT RightHand
							{
								OFFSET -3.444170 -0.000000 -0.000000
								CHANNELS 3 Zrotation Yrotation Xrotation
								JOINT RightFingerBase
								{
									OFFSET 0.000000 0.000000 0.000000
									CHANNELS 3 Zrotation Yrotation Xrotation
									JOINT RightHandIndex1
									{
										OFFSET -0.622530 -0.000000 -0.000000
										CHANNELS 3 Zrotation Yrotation Xrotation
										End Site
										{
											OFFSET 0.000000 0.000000 0.000000
										}
									}
								}
								JOINT RThumb
								{
									OFFSET 0.000000 0.000000 0.000000
									CHANNELS 3 Zrotation Yrotation Xrotation
									End Site
									{
										OFFSET 0.000000 0.000000 0.000000
									}
								}
							}
						}
					}
				}
			}
		}
	}
}
MOTION
Frames: 11
Frame Time: 0.008333
-0.815579 16.943928 -2.791234 -145.531117 82.128906 -133.156778 -12.299181 2.690608 -1.452667 -12.025183 7.458335 -15.251477 0.475845 2.761116 50.012600 1.355236 6.439906 10.658517 1.558400 0.000000 -63.512600 7.582208 -0.590840 4.704001 2.141127 14.937191 -31.148021 3.174210 -0.183611 12.499773 1.517352 10.926317 1.015518 1.360300 0.000000 -62.358000 4.014475 -2.902822 -2.621692 -0.127887 -3.365665 -3.318294 -7.826663 -3.399196 0.751485 10.138818 -7.398808 -6.907176 -4.450830 -0.348625 0.178482 0.000000 0.000000 0.000000 -4.335910 5.590201 1.527271 -60.737651 -3.148370 15.501722 -2.651878 -41.233539 -0.006169 6.449620 0.856875 0.046851 -0.113225 0.056686 0.000000 0.000000 0.000000 0.000000 0.000000 0.000000 0.000000 19.970349 -5.898005 0.876251 64.352369 -2.622406 -1.139953 3.818592 20.872569 0.006674 0.429888 3.113445 0.009280 0.104378 -0.032739 -0.000000 0.000000 0.000000 0.000000 0.000000 0.000000 0.000000 
-0.605649 16.946071 -2.852725 -143.793256 81.704457 -131.596318 -12.600630 2.506335 -1.703693 -11.532687 8.514222 -17.353935 0.723183 2.939856 53.756913 1.650528 8.180065 12.326886 2.194500 0.000000 -56.743400 7.443786 -0.724966 4.667172 2.718662 15.292785 -30.432581 3.151745 -0.281007 13.151875 1.462671 10.392737 1.761230 1.378100 0.000001 -61.414800 4.628013 -2.724439 -2.372793 -0.013258 -3.219165 -3.300612 -7.774573 -3.255455 0.685482 9.910136 -7.052308 -6.857456 -4.440258 -0.347542 0.189477 0.000000 0.000000 0.000000 -4.566945 5.718669 1.548806 -61.459795 -3.173335 15.013676 -2.654245 -40.561294 -0.006418 6.466239 0.914271 0.050113 -0.110311 0.057477 0.000000 0.000000 0.000000 0.000000 0.000000 0.000000 0.000000 19.602906 -5.451880 0.925084 64.366147 -2.285094 -0.940474 3.841068 20.840153 0.006831 0.477301 3.156922 0.010785 0.104899 -0.034559 -0.000000 0.000000 0.000000 0.000000 0.000000 0.000000 0.000000 
-0.397616 16.948673 -2.914670 -142.839501 81.245601 -130.799139 -12.862189 2.309481 -1.914629 -11.191259 9.384931 -19.508042 0.921096 3.119522 57.285788 1.929539 10.035475 13.181754 2.872699 0.000000 -49.443800 7.315352 -0.849511 4.587442 3.357889 15.302043 -29.686273 3.151710 -0.348659 13.689486 1.411008 9.909246 2.238902 1.355001 0.000000 -60.547900 5.168189 -2.566316 -2.129701 0.086434 -3.086893 -3.281893 -7.727659 -3.126117 0.623331 9.720582 -6.734764 -6.817886 -4.430838 -0.346477 0.197747 0.000000 0.000000 0.000000 -4.781557 5.831532 1.573005 -62.161044 -3.185467 14.617369 -2.654332 -39.896116 -0.006613 6.442520 0.975978 0.053375 -0.107134 0.058181 0.000000 0.000000 0.000000 0.000000 0.000000 0.000000 0.000000 19.287918 -5.040726 0.969949 64.359495 -1.908950 -0.668173 3.857029 20.875395 0.007081 0.526808 3.253080 0.012491 0.105117 -0.036598 -0.000000 0.000000 0.000000 0.000000 0.000000 0.000000 0.000000 
-0.190632 16.951789 -2.976567 -142.661231 80.745494 -130.736106 -13.079052 2.113929 -2.070592 -11.012330 10.033035 -21.729045 1.086292 3.303773 60.558889 2.181748 11.905081 13.253334 3.505000 0.000000 -42.753600 7.203765 -0.963207 4.474008 4.017291 14.993380 -28.925447 3.171439 -0.385693 14.115034 1.362944 9.483076 2.418563 1.295400 -0.000001 -59.730000 5.627669 -2.431104 -1.919595 0.169720 -2.972918 -3.266648 -7.689122 -3.015251 0.566806 9.574969 -6.454606 -6.787698 -4.424471 -0.345645 0.203882 0.000000 0.000000 0.000000 -4.982708 5.918301 1.598574 -62.818067 -3.169348 14.328421 -2.652113 -39.255501 -0.006747 6.380231 1.046667 0.056839 -0.103728 0.058666 0.000000 0.000000 0.000000 0.000000 0.000000 0.000000 0.000000 19.039964 -4.676326 1.009763 64.327977 -1.501459 -0.351783 3.866545 20.969468 0.007422 0.569461 3.403496 0.014400 0.105091 -0.038880 -0.000000 0.000000 0.000000 0.000000 0.000000 0.000000 0.000000 
0.016102 16.955630 -3.037983 -143.207166 80.198370 -131.338636 -13.247576 1.928941 -2.160320 -11.003391 10.432859 -24.029931 1.231470 3.490692 63.549169 2.403054 13.690688 12.618698 4.005901 0.000000 -37.228900 7.114577 -1.064717 4.337217 4.655991 14.409091 -28.164350 3.207167 -0.391997 14.428007 1.318302 9.117786 2.301364 1.207200 0.000000 -58.934900 6.000148 -2.319639 -1.765609 0.235407 -2.879435 -3.258313 -7.660978 -2.924967 0.519197 9.475874 -6.219326 -6.767462 -4.422413 -0.345183 0.208022 0.000000 0.000000 0.000000 -5.170192 5.980266 1.623778 -63.416516 -3.123795 14.158735 -2.648568 -38.641837 -0.006816 6.283877 1.127949 0.060402 -0.100187 0.058847 0.000000 0.000000 0.000000 0.000000 0.000000 0.000000 0.000000 18.869281 -4.368343 1.042955 64.269484 -1.067711 -0.016185 3.869486 21.111902 0.007843 0.592458 3.604867 0.015910 0.104915 -0.041405 -0.000000 0.000000 0.000000 0.000000 0.000000 0.000000 0.000000 
0.223274 16.960391 -3.098713 -144.375530 79.598523 -132.493207 -13.365308 1.759868 -2.179315 -11.162335 10.578197 -26.414927 1.362615 3.675713 66.234564 2.591367 15.301797 11.350417 4.300599 0.000000 -32.787900 7.050926 -1.153100 4.187744 5.240243 13.605718 -27.409266 3.254605 -0.368092 14.622608 1.275830 8.809493 1.916885 1.099000 -0.000000 -58.145299 6.282806 -2.231359 -1.682391 0.283198 -2.806962 -3.257894 -7.643866 -2.855555 0.487596 9.423827 -6.038837 -6.761976 -4.424811 -0.345073 0.208965 0.000000 0.000000 0.000000 -5.342648 6.041745 1.646187 -63.951849 -3.078785 14.127973 -2.646101 -38.033743 -0.006825 6.161249 1.217726 0.064170 -0.096720 0.058721 0.000000 0.000000 0.000000 0.000000 0.000000 0.000000 0.000000 18.781041 -4.127639 1.066630 64.183449 -0.602613 0.327937 3.865532 21.288282 0.008322 0.578531 3.850837 0.016523 0.104722 -0.044134 -0.000000 0.000000 0.000000 0.000000 0.000000 0.000000 0.000000 
0.431639 16.966283 -3.158962 -146.007443 78.936848 -134.030926 -13.433241 1.607262 -2.124037 -11.468318 10.472743 -28.882946 1.479882 3.851120 68.583341 2.748006 16.672867 9.573644 4.352401 -0.000000 -29.398400 7.010112 -1.229703 4.040390 5.751982 12.658499 -26.662949 3.310059 -0.314126 14.683182 1.232740 8.536897 1.321731 0.977800 0.000000 -57.351200 6.485950 -2.161444 -1.687183 0.315114 -2.752672 -3.271906 -7.637776 -2.804629 0.459741 9.409043 -5.893336 -6.753952 -4.432902 -0.345640 0.211827 0.000000 0.000000 0.000000 -5.499648 6.042270 1.666323 -64.424678 -2.947475 14.176116 -2.641141 -37.473449 -0.006761 6.013050 1.320118 0.068038 -0.093024 0.058110 0.000000 0.000000 0.000000 0.000000 0.000000 0.000000 0.000000 18.762139 -3.935146 1.085843 64.085354 -0.146278 0.605681 3.856353 21.491175 0.008825 0.531034 4.121851 0.015938 0.104564 -0.047122 -0.000000 0.000000 0.000000 0.000000 0.000000 0.000000 0.000000 
0.641460 16.973534 -3.218664 -147.958397 78.215551 -135.812389 -13.450356 1.471388 -2.003323 -11.900344 10.144152 -31.403651 1.577143 4.011336 70.560389 2.871249 17.743815 7.361394 4.138900 -0.000000 -26.472600 6.992095 -1.294305 3.901477 6.175621 11.633913 -25.909494 3.368337 -0.232657 14.598480 1.186635 8.283542 0.583615 0.851300 0.000000 -56.570000 6.609696 -2.107699 -1.772621 0.331863 -2.714052 -3.295568 -7.640622 -2.769186 0.449942 9.429765 -5.795981 -6.757069 -4.444549 -0.346541 0.212511 0.000000 0.000000 0.000000 -5.637323 6.054270 1.681157 -64.844335 -2.825300 14.341626 -2.638874 -36.894162 -0.006646 5.852127 1.425083 0.071708 -0.089550 0.057173 0.000000 0.000000 0.000000 0.000000 0.000000 0.000000 0.000000 18.809082 -3.801896 1.094966 63.976087 0.326241 0.838689 3.841240 21.702810 0.009317 0.431410 4.407251 0.013153 0.104584 -0.050227 -0.000000 0.000000 0.000000 0.000000 0.000000 0.000000 0.000000 
0.852858 16.982369 -3.278085 -150.076001 77.439096 -137.694896 -13.418673 1.349651 -1.825945 -12.424875 9.623952 -33.935613 1.645819 4.149257 72.119429 2.962970 18.490572 4.872707 3.694700 -0.000000 -23.961100 6.993236 -1.348362 3.777286 6.508147 10.600610 -25.127683 3.424758 -0.126408 14.354069 1.134787 8.022691 -0.221767 0.725700 0.000000 -55.824500 6.661818 -2.064826 -1.930721 0.335134 -2.685823 -3.329440 -7.650583 -2.744187 0.450980 9.476424 -5.730988 -6.761563 -4.459337 -0.347836 0.213604 0.000000 0.000000 0.000000 -5.752545 6.052645 1.691292 -65.221481 -2.676196 14.576142 -2.637849 -36.304636 -0.006476 5.680915 1.530864 0.074980 -0.086169 0.055853 0.000000 0.000000 0.000000 0.000000 0.000000 0.000000 0.000000 18.905050 -3.710505 1.097441 63.870893 0.795037 0.987920 3.821352 21.914238 0.009763 0.284783 4.686158 0.007970 0.104798 -0.053430 -0.000000 0.000000 0.000000 0.000000 0.000000 0.000000 0.000000 
1.065720 16.992962 -3.337325 -152.237436 76.620098 -139.572801 -13.340964 1.239422 -1.605081 -13.007626 8.955811 -36.426204 1.676813 4.259274 73.215758 3.025202 18.912834 2.283787 3.089100 0.000000 -21.896000 7.010368 -1.393358 3.669557 6.751461 9.614323 -24.291293 3.474436 0.000585 13.941993 1.075298 7.729952 -1.023139 0.606300 0.000000 -55.142300 6.647460 -2.027886 -2.143730 0.326070 -2.662196 -3.371700 -7.665351 -2.723990 0.457724 9.540744 -5.686152 -6.760994 -4.476285 -0.349483 0.216625 0.000000 0.000000 0.000000 -5.841749 6.024639 1.697429 -65.567845 -2.483425 14.835446 -2.637564 -35.703476 -0.006251 5.501065 1.633645 0.077652 -0.082820 0.054134 0.000000 0.000000 0.000000 0.000000 0.000000 0.000000 0.000000 19.033832 -3.646713 1.096146 63.781132 1.250680 1.039663 3.797577 22.116376 0.010126 0.096751 4.941122 0.000186 0.105205 -0.056680 -0.000000 0.000000 0.000000 0.000000 0.000000 0.000000 0.000000 
1.279808 17.005304 -3.396507 -154.350678 75.777250 -141.375103 -13.221359 1.139113 -1.357392 -13.617518 8.193786 -38.822669 1.662403 4.338834 73.818557 3.059203 19.025954 -0.271382 2.397499 0.000000 -19.988400 7.040415 -1.430927 3.576464 6.911451 8.715173 -23.374803 3.513006 0.143426 13.362346 1.007377 7.386473 -1.761500 0.496900 0.000000 -54.546600 6.571726 -1.993091 -2.387414 0.305854 -2.638100 -3.417433 -7.682290 -2.703412 0.472878 9.616511 -5.648714 -6.758008 -4.493609 -0.351246 0.220368 0.000000 0.000000 0.000000 -5.904408 6.010458 1.700489 -65.892651 -2.296982 15.124331 -2.640872 -35.053065 -0.005988 5.317641 1.726946 0.079525 -0.079744 0.052137 0.000000 0.000000 0.000000 0.000000 0.000000 0.000000 0.000000 19.180899 -3.593008 1.089780 63.717033 1.690368 0.983934 3.770385 22.308903 0.010376 -0.118871 5.155729 -0.009698 0.105715 -0.059891 -0.000000 0.000000 0.000000 0.000000 0.000000 0.000000 0.000000 
